<?xml version="1.0" encoding="UTF-8"?>
<svg id="Layer_1" style="fill: white;" data-name="Layer 1" xmlns="http://www.w3.org/2000/svg" viewBox="0 0 24 24">
  <path d="m16.05,7.95c-.43-.42-1.11-.42-1.54,0l-2.51,2.51-2.5-2.51c-.43-.43-1.12-.43-1.55,0s-.43,1.12,0,1.55l2.51,2.5-2.51,2.5c-.46.39-.51,1.08-.12,1.54.39.46,1.08.51,1.54.12.04-.04.08-.08.12-.12l2.51-2.5,2.5,2.5c.46.39,1.15.34,1.54-.12.35-.41.35-1.01,0-1.42l-2.5-2.5,2.5-2.5c.43-.42.44-1.11.02-1.54,0,0,0,0,0,0Z"/>
  <path d="m12,0C5.37,0,0,5.37,0,12s5.37,12,12,12,12-5.37,12-12S18.63,0,12,0Zm0,21.82c-5.42,0-9.82-4.4-9.82-9.82S6.58,2.18,12,2.18s9.82,4.4,9.82,9.82-4.4,9.82-9.82,9.82h0Z"/>
</svg>